<svg width ="1920" height ="2300" xmlns="http://www.w3.org/2000/svg" version="1.1" overflow ="auto" > 

<rect x="50" y="75" width="50" height="200" fill="lightcoral" stroke-width="4" stroke="pink" />
<rect x="200" y="75" width="50" height="200" fill="lightcoral" stroke-width="4" stroke="pink" />
<rect x="335" y="75" width="50" height="200" fill="lightcoral" stroke-width="4" stroke="pink" />
<rect x="25" y="250" width="400" height="40" fill="saddlebrown" stroke-width="4" stroke="pink" />

<rect x="28" y="212" width="70" height="35" fill="lightseagreen" stroke-width="4" stroke="pink" />
<rect x="33" y="177" width="60" height="35" fill="lightseagreen" stroke-width="4" stroke="pink" />
<rect x="38" y="142" width="50" height="35" fill="lightseagreen" stroke-width="4" stroke="pink" />
<rect x="545" y="75" width="50" height="200" fill="lightcoral" stroke-width="4" stroke="pink" />
<rect x="695" y="75" width="50" height="200" fill="lightcoral" stroke-width="4" stroke="pink" />
<rect x="830" y="75" width="50" height="200" fill="lightcoral" stroke-width="4" stroke="pink" />
<rect x="520" y="250" width="400" height="40" fill="saddlebrown" stroke-width="4" stroke="pink" />

<rect x="523" y="212" width="70" height="35" fill="lightseagreen" stroke-width="4" stroke="pink" />
<rect x="528" y="177" width="60" height="35" fill="lightseagreen" stroke-width="4" stroke="pink" />
<rect x="818" y="212" width="50" height="35" fill="lightseagreen" stroke-width="4" stroke="pink" />
<rect x="1040" y="75" width="50" height="200" fill="lightcoral" stroke-width="4" stroke="pink" />
<rect x="1190" y="75" width="50" height="200" fill="lightcoral" stroke-width="4" stroke="pink" />
<rect x="1325" y="75" width="50" height="200" fill="lightcoral" stroke-width="4" stroke="pink" />
<rect x="1015" y="250" width="400" height="40" fill="saddlebrown" stroke-width="4" stroke="pink" />

<rect x="1018" y="212" width="70" height="35" fill="lightseagreen" stroke-width="4" stroke="pink" />
<rect x="1173" y="212" width="60" height="35" fill="lightseagreen" stroke-width="4" stroke="pink" />
<rect x="1313" y="212" width="50" height="35" fill="lightseagreen" stroke-width="4" stroke="pink" />
<rect x="1535" y="75" width="50" height="200" fill="lightcoral" stroke-width="4" stroke="pink" />
<rect x="1685" y="75" width="50" height="200" fill="lightcoral" stroke-width="4" stroke="pink" />
<rect x="1820" y="75" width="50" height="200" fill="lightcoral" stroke-width="4" stroke="pink" />
<rect x="1510" y="250" width="400" height="40" fill="saddlebrown" stroke-width="4" stroke="pink" />

<rect x="1513" y="212" width="70" height="35" fill="lightseagreen" stroke-width="4" stroke="pink" />
<rect x="1668" y="212" width="60" height="35" fill="lightseagreen" stroke-width="4" stroke="pink" />
<rect x="1673" y="177" width="50" height="35" fill="lightseagreen" stroke-width="4" stroke="pink" />
<rect x="50" y="350" width="50" height="200" fill="lightcoral" stroke-width="4" stroke="pink" />
<rect x="200" y="350" width="50" height="200" fill="lightcoral" stroke-width="4" stroke="pink" />
<rect x="335" y="350" width="50" height="200" fill="lightcoral" stroke-width="4" stroke="pink" />
<rect x="25" y="525" width="400" height="40" fill="saddlebrown" stroke-width="4" stroke="pink" />

<rect x="313" y="487" width="70" height="35" fill="lightseagreen" stroke-width="4" stroke="pink" />
<rect x="183" y="487" width="60" height="35" fill="lightseagreen" stroke-width="4" stroke="pink" />
<rect x="188" y="452" width="50" height="35" fill="lightseagreen" stroke-width="4" stroke="pink" />
<rect x="545" y="350" width="50" height="200" fill="lightcoral" stroke-width="4" stroke="pink" />
<rect x="695" y="350" width="50" height="200" fill="lightcoral" stroke-width="4" stroke="pink" />
<rect x="830" y="350" width="50" height="200" fill="lightcoral" stroke-width="4" stroke="pink" />
<rect x="520" y="525" width="400" height="40" fill="saddlebrown" stroke-width="4" stroke="pink" />

<rect x="808" y="487" width="70" height="35" fill="lightseagreen" stroke-width="4" stroke="pink" />
<rect x="678" y="487" width="60" height="35" fill="lightseagreen" stroke-width="4" stroke="pink" />
<rect x="533" y="487" width="50" height="35" fill="lightseagreen" stroke-width="4" stroke="pink" />
<rect x="1040" y="350" width="50" height="200" fill="lightcoral" stroke-width="4" stroke="pink" />
<rect x="1190" y="350" width="50" height="200" fill="lightcoral" stroke-width="4" stroke="pink" />
<rect x="1325" y="350" width="50" height="200" fill="lightcoral" stroke-width="4" stroke="pink" />
<rect x="1015" y="525" width="400" height="40" fill="saddlebrown" stroke-width="4" stroke="pink" />

<rect x="1303" y="487" width="70" height="35" fill="lightseagreen" stroke-width="4" stroke="pink" />
<rect x="1308" y="452" width="60" height="35" fill="lightseagreen" stroke-width="4" stroke="pink" />
<rect x="1028" y="487" width="50" height="35" fill="lightseagreen" stroke-width="4" stroke="pink" />
<rect x="1535" y="350" width="50" height="200" fill="lightcoral" stroke-width="4" stroke="pink" />
<rect x="1685" y="350" width="50" height="200" fill="lightcoral" stroke-width="4" stroke="pink" />
<rect x="1820" y="350" width="50" height="200" fill="lightcoral" stroke-width="4" stroke="pink" />
<rect x="1510" y="525" width="400" height="40" fill="saddlebrown" stroke-width="4" stroke="pink" />

<rect x="1798" y="487" width="70" height="35" fill="lightseagreen" stroke-width="4" stroke="pink" />
<rect x="1803" y="452" width="60" height="35" fill="lightseagreen" stroke-width="4" stroke="pink" />
<rect x="1808" y="417" width="50" height="35" fill="lightseagreen" stroke-width="4" stroke="pink" />


</svg>